<?xml version="1.0" standalone="no"?><svg xmlns="http://www.w3.org/2000/svg" viewBox="0 0 1440 320"><path fill="#006666" fill-opacity="1" d="M0,128L30,149.3C60,171,120,213,180,229.3C240,245,300,235,360,224C420,213,480,203,540,202.7C600,203,660,213,720,213.3C780,213,840,203,900,181.3C960,160,1020,128,1080,133.3C1140,139,1200,181,1260,170.7C1320,160,1380,96,1410,64L1440,32L1440,0L1410,0C1380,0,1320,0,1260,0C1200,0,1140,0,1080,0C1020,0,960,0,900,0C840,0,780,0,720,0C660,0,600,0,540,0C480,0,420,0,360,0C300,0,240,0,180,0C120,0,60,0,30,0L0,0Z"></path></svg>